# xmcd
#
# Track frame offsets: 
#        179
#        24470
#        37104
#        53948
#        70228
#        86482
#        99762
#        123274
#        135414
#        150923
#
# Disc length: 2168 seconds
#
# Revision: 10
# Processed by: cddbd v1.5.2PL0 Copyright (c) Steve Scherf et al.
# Submitted via: ExactAudioCopyFreeDBPlugin 1.0
#
DISCID=7308760a
DTITLE=JOHNNY CASH - 1983 - Johnny Cash - Johnny 99
DYEAR=1983
DGENRE=Country
TTITLE0=Highway patrolman
TTITLE1=That's the truth
TTITLE2=God bless Robert E. Lee
TTITLE3=New cut road
TTITLE4=Johnny 99
TTITLE5=Ballad of the ark
TTITLE6=Joshua gone Barbados
TTITLE7=Girl from the canyon
TTITLE8=Brand new dance
TTITLE9=I'm ragged but I'm right
EXTD=
EXTT0=
EXTT1=
EXTT2=
EXTT3=
EXTT4=
EXTT5=
EXTT6=
EXTT7=
EXTT8=
EXTT9=
PLAYORDER=
